<?xml version="1.0" encoding="utf-8"?>
<!-- Generator: Adobe Illustrator 21.0.0, SVG Export Plug-In . SVG Version: 6.00 Build 0)  -->
<svg version="1.1" id="Слой_1" xmlns="http://www.w3.org/2000/svg" xmlns:xlink="http://www.w3.org/1999/xlink" x="0px" y="0px"
	 viewBox="0 0 425.2 425.2" style="enable-background:new 0 0 425.2 425.2;" xml:space="preserve">
<style type="text/css">
	.st0{fill:#FFFFFF;}
</style>
<g>
	<path d="M151.2,172.6H16.9v-160h385.8v114.3l-71.4,85.7l77.2,85.7v114.3H16.9v-160h134.3v45.7h100v-5.7l-71.4-80l65.7-80v-5.7
		h-94.3V172.6z"/>
	<path class="st0" d="M55.3,50.8H99v59.9h15v23.9H54.1v-23.9h15.6V74.8H55.3V50.8z"/>
	<path class="st0" d="M125.9,323.3c0,16.5-10.5,23.2-10.5,23.2v1.5h7.5v34.4H45.1V348h7.5v-1.5c0,0-10.5-6.7-10.5-23.2
		c0-22.5,18-40.4,41.9-40.4S125.9,300.8,125.9,323.3z M84,318c-9,0-15.7,6.7-15.7,15c0,8.2,6.7,15,15.7,15s15.7-6.7,15.7-15
		C99.7,324.8,93,318,84,318z"/>
</g>
</svg>
