<?xml version="1.0" encoding="utf-8"?>
<!-- Generator: Adobe Illustrator 21.0.0, SVG Export Plug-In . SVG Version: 6.00 Build 0)  -->
<svg version="1.1" id="Capa_1" xmlns="http://www.w3.org/2000/svg" xmlns:xlink="http://www.w3.org/1999/xlink" x="0px" y="0px"
	 viewBox="0 0 2122 2122" style="enable-background:new 0 0 2122 2122;" xml:space="preserve">
<style type="text/css">
	.st0{fill:#785130;}
	.st1{fill:#FFFFFF;}
	.st2{fill:#AEB0D8;}
	.st3{fill:#C7C8E1;}
	.st4{fill:#932C26;}
	.st5{fill:#CB4C35;}
	.st6{fill:#371816;}
	.st7{fill:#D57920;}
	.st8{fill:#DD9337;}
	.st9{fill:#D6D8E4;}
	.st10{fill:#8B613B;}
</style>
<path class="st0" d="M612.5,793.5c6.7-47.4,13.9-92.5,17.4-140.3c0.3-4.3,0.6-8.7-0.7-12.9c-1.3-4.1-4.5-7.9-8.8-8.6
	c-5.1,24.5-9.7,49.1-13.7,73.9c-2.2,13.2-3.6,26.6-5.3,39.9c-0.4,2.9-6.5,32-5.8,32.6c-6.8-6.5-13.5-13.1-20.3-19.6
	c-38.6-37.5-76.8-75.5-114.5-114c-2.4-2.4-4.7-4.9-6.5-7.7c-1.8-2.9-3-6.1-4.1-9.4c-15.6-43.8-33.4-85.6-46.3-130.5
	c-2.1,3.6-4.3,7.3-6.4,10.9c-1,1.7-2,3.5-2.3,5.4c-0.2,1.8,0.2,3.6,0.7,5.3c11.2,44.7,23.4,88.8,37.5,132.7
	c-0.8-3.5-62.7-1.6-68.9-2c-24.1-1.6-48.5-4-72.5,0.2c-1.5,1.9-0.4,4.8,1.6,6.2c2,1.4,4.5,1.6,6.9,1.8c23.4,1.8,46.9,3.6,70.3,5.4
	c11.5,0.9,22.9,1.7,34.4,2.6c9.4,0.7,22.7-0.8,31.5,2.9c2.7,1.1,4.8,3.3,6.8,5.5l90.8,97l19.6,21l-133.6,53.3c2.5,6.7,11.7,7,18.7,6
	c39.3-5.5,78.2-14.7,115.8-27.5c8.3-2.8,17.9-6.4,26.7-4.5c9.1,2,16.3,11.5,23.1,17.6c16.3,14.7,32.6,29.4,49,44.1
	c12,10.8,24.1,20.8,36.2,31.3c2.6-13.5,6.1-26.8,10.8-39.7C672.3,844.9,640.7,821,612.5,793.5z"/>
<path class="st1" d="M1334.4,1207.2c-2.5,2.9-5,5.8-7.5,8.5c-1.3,1.5-2.7,2.9-4,4.3c-2.5,2.6-5.1,5.2-7.6,7.8
	c-1.3,1.3-2.6,2.6-4,3.9c-3.1,3-6.3,5.9-9.5,8.7c-0.8,0.7-1.5,1.4-2.3,2.1c-4,3.4-8.1,6.8-12.2,10c-1.3,1-2.6,1.9-3.8,2.9
	c-2.9,2.2-5.9,4.5-8.9,6.6c-1.6,1.1-3.2,2.2-4.8,3.3c-1.4,0.9-2.7,1.9-4,2.8c-1.5,1-3.1,2-4.6,2.9c-1.5,1-3.1,2-4.7,3
	c-3.4,2.1-6.8,4.2-10.2,6.2c-1.1,0.6-2.1,1.3-3.2,1.9c-4.5,2.6-9,5-13.6,7.4c-1.3,0.7-2.7,1.4-4,2c-3.4,1.7-6.7,3.4-10.1,5
	c-1.7,0.8-3.5,1.6-5.2,2.4c-3.2,1.5-6.4,2.9-9.6,4.3c-1.7,0.7-3.4,1.5-5.1,2.2c-3.8,1.6-7.6,3.1-11.5,4.6c-1.1,0.4-2.1,0.9-3.2,1.3
	c-4.9,1.9-9.8,3.7-14.8,5.4c-1.5,0.5-3,1-4.5,1.5c-3.6,1.2-7.2,2.4-10.8,3.6c-1.9,0.6-3.7,1.2-5.6,1.7c-3.4,1.1-6.9,2.1-10.3,3.1
	c-1.8,0.5-3.6,1.1-5.4,1.6c-4.2,1.2-8.4,2.3-12.6,3.4c-1,0.3-2,0.6-3.1,0.8c-5.2,1.3-10.5,2.6-15.7,3.9c-1.6,0.4-3.2,0.7-4.9,1.1
	c-3.8,0.9-7.5,1.7-11.3,2.5c-1.9,0.4-3.9,0.8-5.8,1.2c-3.6,0.8-7.3,1.5-10.9,2.2c-1.8,0.4-3.7,0.7-5.5,1.1
	c-4.5,0.9-9.1,1.7-13.7,2.6c-0.9,0.2-1.7,0.3-2.6,0.5c-5.4,1-10.9,1.9-16.3,2.8c-1.7,0.3-3.4,0.6-5.2,0.8c-3.8,0.6-7.7,1.2-11.5,1.8
	c-2,0.3-4,0.6-6,0.9c-3.8,0.6-7.5,1.1-11.3,1.7c-1.8,0.3-3.7,0.5-5.5,0.8c-4.9,0.7-9.7,1.4-14.6,2.1c-0.6,0.1-1.2,0.2-1.9,0.3
	c-5.6,0.8-11.2,1.5-16.8,2.3c-1.8,0.2-3.6,0.5-5.4,0.7c-3.8,0.5-7.7,1-11.5,1.5c-2.3,0.3-4.5,0.6-6.8,0.9c-4.1,0.5-8.3,1.1-12.4,1.6
	c-5.6,0.7-11.3,1.4-16.9,2.2c-0.9,0.1-1.8,0.2-2.7,0.4c-5.4,0.7-10.8,1.4-16.2,2.1c-1.6,0.2-3.3,0.4-4.9,0.7
	c-3.9,0.5-7.8,1-11.7,1.6c-1.9,0.3-3.8,0.5-5.7,0.8c-3.8,0.5-7.6,1.1-11.4,1.6c-1.8,0.2-3.5,0.5-5.3,0.7c-5.5,0.8-10.9,1.6-16.3,2.4
	c-47.3,5.6-83.5,41.8-91.9,91.9c-13.9,91.9-13.9,180.9,0,270c161.5,130.8,392.5,119.7,590.1,94.6c52.6-6.6,104.2-27.7,146.8-60.5
	c1.3-2.5,2.6-5.1,3.7-7.7c31.2-69,53.1-152.4,55.7-235.1c2.7-87.1-16-173.5-67.9-241.7c-30.7-40.4-70-73.5-114.9-99.7
	c-3.4,4.5-6.9,8.9-10.4,13.2C1336.7,1204.5,1335.6,1205.8,1334.4,1207.2z"/>
<path class="st2" d="M1051.7,1289.2c-88.7,0-182.4-23.6-257.6-69.1c-15.3-9.3-28.6-19.5-40.3-30.6c-5.1,2.8-10.2,5.6-15.2,8.5
	c143.3,131.5,355.2,146.1,527,70.1c1.4-0.9,2.7-1.9,4-2.8c1.6-1.1,3.2-2.2,4.8-3.3c3-2.1,6-4.4,8.9-6.6c1.3-1,2.6-1.9,3.8-2.9
	c4.1-3.2,8.2-6.6,12.2-10c0.8-0.7,1.6-1.4,2.3-2.1c3.2-2.8,6.4-5.7,9.5-8.7c1.3-1.3,2.6-2.6,4-3.9c2.6-2.5,5.1-5.1,7.6-7.8
	c1.4-1.4,2.7-2.9,4-4.3c2.5-2.8,5-5.6,7.5-8.5c1.1-1.3,2.3-2.6,3.4-4c3.5-4.3,7-8.6,10.4-13.2c-1.3-0.8-2.7-1.5-4.1-2.3
	c-2.8,3.1-5.7,6.1-8.8,9C1265.4,1263.4,1146.6,1289.2,1051.7,1289.2z"/>
<path class="st3" d="M734.6,1740.1c-13.9-89.1-13.9-178.2,0-270c8.4-50.1,44.5-86.3,91.9-91.9c5.4-0.8,10.9-1.6,16.3-2.4
	c1.7-0.3,3.5-0.5,5.3-0.7c3.8-0.5,7.6-1.1,11.4-1.6c1.9-0.3,3.8-0.5,5.7-0.8c3.9-0.5,7.8-1,11.7-1.6c1.6-0.2,3.3-0.4,4.9-0.7
	c5.4-0.7,10.8-1.4,16.2-2.1c0.9-0.1,1.8-0.2,2.7-0.4c5.6-0.7,11.3-1.4,16.9-2.2c4.1-0.5,8.3-1.1,12.4-1.6c2.3-0.3,4.5-0.6,6.8-0.9
	c3.8-0.5,7.7-1,11.5-1.5c1.8-0.2,3.6-0.5,5.4-0.7c5.6-0.7,11.2-1.5,16.8-2.3c0.6-0.1,1.2-0.2,1.9-0.3c4.9-0.7,9.8-1.4,14.6-2.1
	c1.8-0.3,3.7-0.5,5.5-0.8c3.8-0.6,7.5-1.1,11.3-1.7c2-0.3,4-0.6,6-0.9c3.9-0.6,7.7-1.2,11.5-1.8c1.7-0.3,3.5-0.6,5.2-0.8
	c5.5-0.9,10.9-1.8,16.3-2.8c0.9-0.2,1.7-0.3,2.6-0.5c4.6-0.8,9.1-1.7,13.7-2.6c1.8-0.4,3.7-0.7,5.5-1.1c3.7-0.7,7.3-1.5,10.9-2.2
	c1.9-0.4,3.9-0.8,5.8-1.2c3.8-0.8,7.6-1.7,11.3-2.5c1.6-0.4,3.3-0.7,4.9-1.1c5.3-1.2,10.5-2.5,15.7-3.9c1-0.3,2-0.5,3.1-0.8
	c4.2-1.1,8.4-2.2,12.6-3.4c1.8-0.5,3.6-1,5.4-1.6c3.5-1,6.9-2,10.3-3.1c1.9-0.6,3.7-1.2,5.6-1.7c3.6-1.2,7.2-2.3,10.8-3.6
	c1.5-0.5,3-1,4.5-1.5c5-1.7,9.9-3.5,14.8-5.4c1.1-0.4,2.1-0.9,3.2-1.3c3.9-1.5,7.7-3,11.5-4.6c1.7-0.7,3.4-1.5,5.1-2.2
	c3.2-1.4,6.4-2.8,9.6-4.3c1.7-0.8,3.5-1.6,5.2-2.4c3.4-1.6,6.8-3.3,10.1-5c1.3-0.7,2.7-1.3,4-2c4.6-2.4,9.1-4.9,13.6-7.4
	c1.1-0.6,2.1-1.3,3.2-1.9c3.4-2,6.8-4.1,10.2-6.2c1.6-1,3.1-2,4.7-3c1.5-1,3.1-1.9,4.6-2.9c-171.8,76-383.7,61.4-527-70.1
	c-4.7,2.7-9.3,5.5-13.8,8.4c-108.1,68.4-154.9,158.5-157.4,272.8c-1.6,70.7-2.5,157.2,24.1,224.5c63,159.5,276.8,244.4,460.9,244.4
	c5.6,0,11.1-0.1,16.7-0.3c140.1-4.1,340.4-52.3,402.4-173.7c-42.6,32.8-94.2,53.9-146.8,60.5
	C1127.1,1859.8,896.1,1870.9,734.6,1740.1z"/>
<path class="st2" d="M1182.8,910.5c6.3-1,12.6-2,18.9-3.1c-1.3-3.2-2.7-6.4-3.9-9.6c-34.1,5.3-68.6,7.9-103,9.1
	c-19.9,0.7-39.9,0.9-59.8,0.9c-102.8,0.1-208.5-5.2-302.8-46.1c-7.5-3.2-15.2-6.5-22.2-10.8c-2.1,4-4.1,8.1-5.9,12.3
	C851.4,931.4,1021.5,935.3,1182.8,910.5z"/>
<path class="st2" d="M1336.2,865.3c12.6-6.8,24.6-14.5,35.8-23.3c-0.8-1.3-1.7-2.6-2.5-3.9c-11,7.7-23.6,13.9-36.1,19.6
	C1334.4,860.2,1335.3,862.8,1336.2,865.3z"/>
<path class="st3" d="M1339,873c11-8.4,25.4-14.3,37.9-22.5c-1.5-2.9-3.2-5.7-4.8-8.5c-11.1,8.9-23.1,16.6-35.8,23.3
	C1337.2,867.9,1338.1,870.4,1339,873z"/>
<path class="st3" d="M1063.1,1205.6c-66.8,0-133.6-16.7-197.6-47.3c-30.6-13.9-61.2-30.6-80.7-61.2c-39-58.5-52.9-125.3-41.8-192.1
	c0-5.6,13.9-2.8,22.3-2.8c114.1,41.8,231,47.3,350.7,50.1c41.8,52.9,25.1,142,72.4,178.2c44.6,31.5,108.9-6.2,160.4-36.3
	c-40.6,10.9-84,20-122.3,3.7c-1.2-0.5,2-39.3,2-43.3c0-15.2-0.8-30.4-2.4-45.5c-2.7-26.3-7.7-52.3-15-77.7c-2-7-5.7-15.3-9.4-23.9
	c-6.4,1.1-12.7,2.2-18.9,3.1c-161.3,24.8-331.3,20.8-478.8-47.3c-0.9,2.1-1.7,4.2-2.5,6.3c-0.4,1-0.7,1.9-1,2.9
	c-4.7,12.9-8.3,26.2-10.8,39.7c-4.4,23.1-6.1,46.7-6.5,70.1c-1.4,80.6,14.9,154,70.7,207.3c11.6,11.1,25,21.4,40.3,30.6
	c75.2,45.5,168.9,69.1,257.6,69.1c94.9,0,213.6-25.8,283.7-92.5c3-2.9,5.9-5.9,8.8-9c14.7-15.9,26.4-33.8,35.5-52.9
	C1304.1,1217.6,1169.7,1208.1,1063.1,1205.6z"/>
<path class="st1" d="M1404,950.2c-2.2-18.4-5.1-36.8-9.8-54.7c-3.8,2.1-7.6,4.2-11.5,6.4c-6.1,3.5-13.2,5.9-20.1,4.8
	c-3.5-0.6-6.8-2.3-9.4-4.7c-2.5-2.4-4.2-5.6-4.4-9.1c-0.4-7.7,6.3-13.8,12.4-18.5c6.6-5,13.5-9.6,20.4-14.1
	c-1.5-3.3-3.1-6.6-4.8-9.7c-12.5,8.2-26.9,14.1-37.9,22.5c21.7,62.5,29.3,129.9,21.9,195.7c-0.1,1-0.2,2.1-0.3,3.1
	c-0.7,5.7-1.5,11.4-2.4,17c-0.2,1-0.3,2-0.4,3c-3,0.8-5.9,1.6-8.9,2.4c-51.5,30.1-115.8,67.7-160.4,36.3
	c-47.3-36.2-30.6-125.3-72.4-178.2c-119.7-2.8-236.6-8.4-350.7-50.1c-8.4,0-22.3-2.8-22.3,2.8c-11.1,66.8,2.8,133.6,41.8,192.1
	c19.5,30.6,50.1,47.3,80.7,61.2c64,30.6,130.8,47.3,197.6,47.3c106.6,2.5,241,12,316.6-70.8c19.4-40.7,27.1-87.1,27.3-132.2
	C1407.1,984.8,1406,967.2,1404,950.2z"/>
<path class="st4" d="M1222.5,256c4.9,28.5,12.7,56.4,21.3,84c0.5,0.2,1.1,0.4,1.6,0.6c15.7,6.9,30.1,16,41.3,29.9
	c12,14.8,19,33.1,22.7,51.8c2.5,12.5,11,46.2,3.4,57c-2.8,4-6.2,5.3-9.9,5.2c0.2,0.6,0.5,1.3,0.7,1.9c1.4,2.1,2.7,4.2,4.1,6.3
	c7.8-5.2,17.2-8.2,27.2-8.2c6.8,0,13.4,1.4,19.3,3.9c1.6-27.6-1.6-54.3-6.3-82.1c-2.6-15.6-5.3-31.3-9.8-46.5
	c-5.5-18.2-13.6-35.4-23.5-51.6C1291,280.7,1261.5,259.1,1222.5,256z"/>
<path class="st5" d="M959.1,290.3c24.7-0.2,49.4,0.7,73.9,2.8c53.9,4.6,107.4,14.6,159.3,30c17.2,5.1,35,9.9,51.5,16.9
	c-8.7-27.6-16.4-55.4-21.3-84c39.1,3.1,68.5,24.7,92.2,52.4c-5.4-8.9-11.3-17.4-17.6-25.7c-7.5-9.9-15.7-19.4-25.5-27
	c-9.3-7.2-19.9-12.6-30.5-17.6c-32.7-15.3-66.8-27.1-100.9-39c-23.4-8.1-46.4-16.4-70.6-22c-11.2-2.6-22.7-4.7-34.2-3.6
	c-24.8,2.4-47.7,25.4-66.1,40.6c-30.1,24.9-56.5,54.2-78.1,86.7c2-0.8,4.1-1.6,6.4-2.3C917.5,292,938.4,290.5,959.1,290.3z"/>
<path class="st3" d="M857.7,742.7c33.8,9.6,68.3,16.8,103.1,21.2c-38.5-20.1-69.7-51-78-95.9c38.5-13.5,75.7-25.6,114.4-35.5
	c-0.7,0-1.3,0-2,0c-7.6-0.1-14.8-1.3-22.2-0.4c-9.2,1.1-18.2,2.6-27.5,2c-11-0.7-21.7-4-32.6-4.6c-12-0.7-24,2-35.9,0.1
	c-7.4-1.2-14-3.1-21.4-3.7c-7.4-0.6-14.8-2.6-21.5-5.8c-0.9-0.4-1.9-1-2-2c-0.2-1.2,1-2.1,2.1-2.7c2.6-1.5,5.3-3,8-4.4
	c-32.4-10.7-39.9-50.2-34.5-82.2c0.7-3.7,1.3-7.5,2-11.2c0.1-0.8,0.3-1.6,0.4-2.3c0.6-3.1,1.2-6.3,1.8-9.4c0.1-0.7,0.3-1.4,0.4-2.1
	c0.6-3.4,1.3-6.7,2-10c0.1-0.4,0.2-0.9,0.3-1.3c4-19.7,8.7-39.3,14.7-58.2c0,0,0,0,0-0.1c159-22.7,338.5-11.2,479.2,67
	c7.3,24.8,11.2,51,11.2,78.1c0,0.6,0,1.1,0,1.7c4.9,1.6,10,2.5,15.4,2.5c27.3,0,49.4-22.1,49.4-49.4c0-20.4-12.4-38-30.1-45.5
	c-5.9-2.5-12.4-3.9-19.3-3.9c-10.1,0-19.4,3-27.2,8.2c-0.5,0.4-1,0.7-1.6,1.1c-0.8-2.5-1.7-5-2.5-7.5c-0.2-0.6-0.5-1.3-0.7-1.9
	c-9.3-0.3-20.4-10.4-26.8-13.9c-14.2-7.9-29.7-14.2-44.8-20.3c-31.8-12.8-64.7-22.9-98.2-29.9c-41-8.6-82.9-12.6-124.7-16
	c-24.7-2-49.5-3.8-74.3-4.3c-22.1-0.5-44.2,0-66.2,2.1c-9.9,1-19.7,3.8-29.5,5.9c-3.5,8.5-6.6,17.1-9.4,25.9
	c2.8-8.8,5.9-17.4,9.3-25.9c-2.8,0.6-5.6,1.1-8.5,1.5c-2.1,0.3-5.4,1-8.6,1.3c-35.7,46.7-56.9,105-56.9,168.2
	c0,51.4,14,99.5,38.4,140.7c18.2,7.3,36.1,17.3,47.6,20.6C852.9,741.3,855.3,742,857.7,742.7z"/>
<path class="st1" d="M1308.5,501.1c-140.7-78.2-320.2-89.7-479.2-67c0,0,0,0,0,0.1c-6,18.9-10.6,38.5-14.7,58.2
	c-0.1,0.4-0.2,0.9-0.3,1.3c-0.7,3.3-1.3,6.7-2,10c-0.1,0.7-0.3,1.4-0.4,2.1c-0.6,3.1-1.2,6.3-1.8,9.4c-0.1,0.8-0.3,1.6-0.4,2.3
	c-0.7,3.7-1.4,7.5-2,11.2c-5.3,32,2.2,71.5,34.5,82.2c6.5-3.5,13.1-6.6,20.1-8.4c2.1-0.5,4.2-0.9,6.3-1.2c6.7-0.9,13.5-0.4,20.2-1
	c15.6-1.6,29.8-9.6,45.1-12.6c11.4-2.2,23.2-1.7,34.4-4.5c23.1-5.8,42.8-25.5,66.6-23.9c25.6,1.7,42.9,31.1,30.9,54
	c-4,7.6-10.7,13.7-18.6,17.1c-2.8,1.2-5.7,2-8.7,1.9c-1.8-0.1-3.6-0.5-5.4-0.7c-11.8-1.3-24,1-35.9,1c-38.6,9.9-75.8,22-114.4,35.5
	c8.3,44.9,39.4,75.8,78,95.9c20.9,2.7,42,4.4,63,5.1c51.2,1.7,102.6-2.6,152.6-13.9c24.9-5.6,49.4-13,73.2-22.1
	c13.6-5.2,26.1-19.8,39.8-27.8c19-37.3,29.9-79.5,30.1-124.2c0-0.6,0-1.1,0-1.7C1319.6,552.1,1315.7,525.9,1308.5,501.1z
	 M927.1,548.6c-16,0-28.9-13-28.9-28.9c0-16,13-28.9,28.9-28.9c16,0,28.9,13,28.9,28.9C956.1,535.7,943.1,548.6,927.1,548.6z
	 M1156.6,490.7c16,0,28.9,13,28.9,28.9c0,16-13,28.9-28.9,28.9c-16,0-28.9-13-28.9-28.9C1127.7,503.7,1140.7,490.7,1156.6,490.7z
	 M1161.4,680.9c0,7.3-5.9,13.2-13.2,13.2c-7.3,0-13.2-5.9-13.2-13.2c0-7.3,5.9-13.2,13.2-13.2
	C1155.5,667.7,1161.4,673.6,1161.4,680.9z M1109.2,689.7c7.3,0,13.2,5.9,13.2,13.2c0,7.3-5.9,13.2-13.2,13.2
	c-7.3,0-13.2-5.9-13.2-13.2C1096,695.6,1101.9,689.7,1109.2,689.7z M966.1,689.7c7.3,0,13.2,5.9,13.2,13.2c0,7.3-5.9,13.2-13.2,13.2
	c-7.3,0-13.2-5.9-13.2-13.2C952.9,695.6,958.9,689.7,966.1,689.7z M927.1,667.7c7.3,0,13.2,5.9,13.2,13.2c0,7.3-5.9,13.2-13.2,13.2
	c-7.3,0-13.2-5.9-13.2-13.2C913.9,673.6,919.8,667.7,927.1,667.7z M1016.4,726.5c-7.3,0-13.2-5.9-13.2-13.2
	c0-7.3,5.9-13.2,13.2-13.2c7.3,0,13.2,5.9,13.2,13.2C1029.6,720.6,1023.7,726.5,1016.4,726.5z M1061.2,726.5
	c-7.3,0-13.2-5.9-13.2-13.2c0-7.3,5.9-13.2,13.2-13.2c7.3,0,13.2,5.9,13.2,13.2C1074.4,720.6,1068.5,726.5,1061.2,726.5z"/>
<circle class="st6" cx="927.1" cy="519.7" r="28.9"/>
<circle class="st6" cx="1156.6" cy="519.7" r="28.9"/>
<circle class="st6" cx="927.1" cy="680.9" r="13.2"/>
<circle class="st6" cx="966.1" cy="702.9" r="13.2"/>
<circle class="st6" cx="1148.2" cy="680.9" r="13.2"/>
<circle class="st6" cx="1109.2" cy="702.9" r="13.2"/>
<circle class="st6" cx="1016.4" cy="713.3" r="13.2"/>
<circle class="st6" cx="1061.2" cy="713.3" r="13.2"/>
<path class="st7" d="M1033.2,631.5c1.8,0.2,3.6,0.6,5.4,0.7c3,0.1,6-0.7,8.7-1.9c7.9-3.3,14.6-9.5,18.6-17.1
	c12-22.9-5.2-52.2-30.9-54c-23.8-1.6-43.5,18.1-66.6,23.9c-11.2,2.8-23,2.3-34.4,4.5c-15.4,3-29.6,11-45.1,12.6
	c-6.7,0.7-13.5,0.2-20.2,1c-2.1,0.3-4.2,0.7-6.3,1.2c-7,1.8-13.7,4.9-20.1,8.4c-2.7,1.4-5.3,2.9-8,4.4c-1.1,0.6-2.3,1.5-2.1,2.7
	c0.1,1,1.1,1.5,2,2c6.7,3.2,14.1,5.2,21.5,5.8c7.4,0.6,14,2.5,21.4,3.7c11.9,1.9,23.9-0.7,35.9-0.1c11,0.6,21.7,3.9,32.6,4.6
	c9.3,0.6,18.3-0.9,27.5-2c7.4-0.9,14.6,0.3,22.2,0.4c0.7,0,1.3,0,2,0C1009.2,632.5,1021.3,630.2,1033.2,631.5z M904.7,604.8
	c7.9-6.3,20.1-0.6,29.6-4.2c3.2-1.2,5.8-3.4,8.6-5.3c7.7-5.2,16.9-8.1,26.2-8.4c8.4-0.3,16.6,2.7,24.5-1.6c4.8-2.6,9.5-5.6,13.9-8.8
	l0.9-0.7c5.7-4.3,11.5-9.1,18.5-10.2c16-2.4,30.2,19.8,14,29.7c-4,2.4-8.7,3.2-13.3,3.6c-6.5,0.6-13.1,0.4-19.6-0.5
	c-4.9-0.7-10-1.7-14.7-0.1c-3,1-5.5,3.1-8.2,4.7c-9.7,6-21.7,7-33,5.8c-7.2-0.8-14.6-2.4-21.7-0.8c-3.7,0.8-7.3,2.5-11,3.3
	c-4,0.9-8.1,0.9-12.1,0c-2.2-0.5-4.8-2-4.4-4.3C903.1,606.2,903.9,605.4,904.7,604.8z"/>
<path class="st8" d="M907.4,611.5c4,0.9,8.1,0.9,12.1,0c3.7-0.9,7.2-2.5,11-3.3c7.1-1.5,14.4,0.1,21.7,0.8c11.3,1.2,23.3,0.2,33-5.8
	c2.7-1.7,5.2-3.7,8.2-4.7c4.7-1.6,9.8-0.6,14.7,0.1c6.5,0.9,13.1,1,19.6,0.5c4.6-0.4,9.3-1.2,13.3-3.6c16.2-9.9,2-32.1-14-29.7
	c-7.1,1-12.8,5.9-18.5,10.2l-0.9,0.7c-4.4,3.3-9.1,6.2-13.9,8.8c-7.9,4.3-16,1.3-24.5,1.6c-9.3,0.3-18.5,3.2-26.2,8.4
	c-2.8,1.9-5.5,4.1-8.6,5.3c-9.5,3.6-21.6-2.1-29.6,4.2c-0.8,0.6-1.5,1.4-1.7,2.4C902.6,609.5,905.2,611,907.4,611.5z"/>
<path class="st1" d="M1267,423c-4.8-29-13.8-55.8-21.6-82.4c-0.5-0.2-1.1-0.4-1.6-0.6c-16.5-7-34.3-11.8-51.5-16.9
	c-51.9-15.4-105.4-25.5-159.3-30c-24.6-2.1-49.3-3-73.9-2.8c-20.7,0.2-41.6,1.7-61.5,8.1c-2.3,0.7-4.4,1.5-6.4,2.3
	c-16.8,6.5-26.2,14.9-39.2,29.9c-7.7,8.8-14.7,18.3-21,28.2C975.2,330.8,1136.4,361.6,1267,423z"/>
<path class="st9" d="M838.6,408.1c0,0,0.1,0,0.1,0c9.8-2.1,19.5-5,29.5-5.9c22-2.1,44.1-2.6,66.2-2.1c24.8,0.5,49.5,2.3,74.3,4.3
	c41.8,3.4,83.6,7.4,124.7,16c33.5,7,66.4,17,98.2,29.9c15.1,6.1,30.5,12.4,44.8,20.3c6.4,3.6,17.4,13.7,26.8,13.9
	c3.7,0.1,7.1-1.3,9.9-5.2c7.6-10.8-0.9-44.6-3.4-57c-3.7-18.7-10.7-37-22.7-51.8c-11.3-13.9-25.7-23-41.3-29.9
	c7.8,26.6,16.8,53.5,21.6,82.4c-130.6-61.5-291.8-92.2-436-64.3c-5.1,8.1-9.8,16.5-13.8,25.2c-2.3,4.9-9.3,20.2-4.3,25.3
	c1.8,1.8,5.2,2.1,8.6,1.7c3.2-0.3,6.4-1,8.6-1.3C833,409.3,835.8,408.7,838.6,408.1z"/>
<path class="st5" d="M1333.4,857.7c-1.4,0.6-2.8,1.3-4.3,1.9c-25.1,22.6-66.6,31.7-74,53.7c-16.7,50.1-2.8,122.5,19.5,167
	c11,17.6,51.5,7.4,85.9-8.6c0.1-1,0.2-2.1,0.3-3.1c7.4-65.8-0.2-133.1-21.9-195.7c-0.9-2.6-1.8-5.1-2.7-7.6
	C1335.3,862.8,1334.4,860.2,1333.4,857.7z"/>
<path class="st5" d="M1176.5,755.1c-50,11.3-101.4,15.6-152.6,13.9c-21.1-0.7-42.1-2.4-63-5.1c-34.8-4.5-69.3-11.6-103.1-21.2
	c-28.4,4.6-64.3,8.1-53.5,23.1c75.2,94.6,211.6,66.8,322.9,75.2c-94.6,2.8-186.5,13.9-281.1-11.1c-13.9-2.8-30.6-2.8-33.4,11.1
	c-2.8,16.7,16.7,30.6,30.6,33.4c125.3,27.8,242.2,13.9,367.4-5.6c57.1-9.9,145.1-24.3,165.5-84.5c-6.8-5.5-14.8-10.4-20.4-16.9
	c-9-10.4-11.8-24.6-16.4-37.5c-4.6-13-12.8-26.5-26.3-29.5c-8.5-1.9-16.2,0.5-23.6,4.8c-13.8,8-26.2,22.6-39.8,27.8
	C1225.8,742.1,1201.4,749.4,1176.5,755.1z"/>
<path class="st4" d="M1034.9,907.8c20,0,39.9-0.2,59.8-0.9c34.4-1.2,69-3.8,103-9.1c1.2,3.2,2.6,6.4,3.9,9.6
	c3.7,8.7,7.4,17,9.4,23.9c7.2,25.4,12.2,51.4,15,77.7c1.6,15.1,2.4,30.3,2.4,45.5c0,4-3.2,42.8-2,43.3c38.3,16.3,81.7,7.2,122.3-3.7
	c3-0.8,6-1.6,8.9-2.4c0.2-1,0.3-2,0.4-3c0.9-5.7,1.8-11.3,2.4-17c-34.4,16-74.9,26.2-85.9,8.6c-22.3-44.5-36.2-116.9-19.5-167
	c7.3-22,48.8-31.1,74-53.7c1.4-0.6,2.8-1.3,4.3-1.9c12.6-5.7,25.2-11.9,36.1-19.6c0,0,0,0,0,0c11.7-8.2,22.9-21.3,19.9-35.3
	c-1.6-7.9-7-13.5-13.4-18.6c-20.4,60.2-108.4,74.6-165.5,84.5c-125.3,19.5-242.2,33.4-367.4,5.6c-13.9-2.8-33.4-16.7-30.6-33.4
	C815.3,827,832,827,846,829.8c94.6,25.1,186.5,13.9,281.1,11.1c-111.3-8.4-247.7,19.5-322.9-75.2c-10.8-15.1,25.1-18.5,53.5-23.1
	c-2.4-0.7-4.8-1.4-7.2-2.1c-11.5-3.4-29.4-13.4-47.6-20.6c-27.2-10.9-55.2-15.7-63.6,16.8c-0.1,0.5-0.2,0.9-0.3,1.4
	c-2.3,10.8,0.4,22.9-5.5,32.2c-7.8,12.4-26.2,12.7-37.2,22.4c-10.8,9.6-11.8,27.2-4.9,39.9c4.4,8.1,10.9,13.8,18.4,18.3
	c7,4.3,14.7,7.6,22.2,10.8C826.5,902.6,932.1,907.9,1034.9,907.8z"/>
<path class="st0" d="M1530.4,772l-0.1-0.2c-7.9,5.1-15.9,10.1-23.8,15.1c0.8-0.5,0.7-30.1,0.9-33.1c1-13.4,2.3-26.7,2.8-40.2
	c1-25,1.5-50.1,1.4-75.1c-4.3-0.2-8.2,2.9-10.3,6.7c-2.1,3.8-2.7,8.2-3.3,12.5c-6.2,47.5-8.3,93.1-11.2,140.9
	c-34.2,21.9-71.2,39.3-105.1,61.4c-6.9,4.5-13.8,9.2-20.4,14.1c-6.2,4.7-12.8,10.8-12.4,18.5c0.2,3.5,1.9,6.7,4.4,9.1
	c2.5,2.4,5.9,4.1,9.4,4.7c6.9,1.2,14-1.3,20.1-4.8c3.8-2.2,7.6-4.3,11.5-6.4c11.6-6.4,23.2-12.7,34.8-19.5l56.8-33.3
	c7.9-4.6,16.8-12.5,26.1-12.6c9.1-0.1,17.8,5.4,25.3,9.8c34.3,20.1,70.4,36.9,107.9,50.2c6.7,2.4,15.8,3.9,19.6-2.1
	c-40-26.4-80.1-52.7-120.1-79.1l23.5-16.6C1553.2,790.6,1540,785.1,1530.4,772z"/>
<path class="st10" d="M1758.7,707.3c-6.1-0.8-66.4-15.2-67.9-11.9c22.7-40.2,43.5-80.9,63.5-122.4c0.8-1.6,1.6-3.3,1.7-5.1
	c0.2-2-0.5-3.9-1.1-5.8c-1.4-4-2.7-8-4.1-12c-21.7,41.4-47.6,78.8-71.7,118.5c-1.8,2.9-3.6,5.9-5.9,8.3c-2.3,2.4-5.2,4.4-8,6.3
	c-44.6,30.1-89.7,59.7-135.1,88.6l0.1,0.2c9.6,13,22.8,18.5,37.6,20.2c36.2-25.6,72.4-51.1,108.5-76.7c2.4-1.7,4.9-3.4,7.8-4
	c9.3-1.9,22.1,2.3,31.4,3.5c11.4,1.5,22.8,2.9,34.2,4.4c23.3,3,46.6,5.9,69.9,8.9c2.4,0.3,4.9,0.6,7.1-0.4c2.2-1,3.8-3.6,2.8-5.8
	C1807,713.2,1782.6,710.6,1758.7,707.3z"/>
</svg>
