<svg xmlns="http://www.w3.org/2000/svg" viewBox="0 0 41.79 22.61"><defs><style>.cls-1{fill:#fff;}</style></defs><title>Ресурс 4</title><g id="Слой_2" data-name="Слой 2"><g id="Object"><path class="cls-1" d="M39.58,6.4a2.2,2.2,0,0,0-1.18.34,2.21,2.21,0,0,0-4.17-.43A6,6,0,0,0,26,3.19a7.53,7.53,0,0,0-10.27-2A5.4,5.4,0,0,0,6.88,5.4,5.44,5.44,0,0,0,7,6.29a3.66,3.66,0,0,0-2,.9,2.84,2.84,0,1,0-2.1,4.75h.1A2.74,2.74,0,0,0,7,15v0A5.3,5.3,0,0,0,16.73,18a6,6,0,0,0,11.53.73,4.53,4.53,0,0,0,7.26-3.39h.21a3.84,3.84,0,0,0,3.79-4.49h.05a2.21,2.21,0,1,0,0-4.42Z"/></g></g></svg>