<svg xmlns="http://www.w3.org/2000/svg" viewBox="0 0 39.09 23.85"><defs><style>.cls-1{fill:#fff;}</style></defs><title>Ресурс 1</title><g id="Слой_2" data-name="Слой 2"><g id="Object"><path class="cls-1" d="M37.83,15.8a3.43,3.43,0,0,0-2.17-6.09l-.43,0a4.47,4.47,0,0,0-6.39-5A8.67,8.67,0,0,0,13,5.75,5.51,5.51,0,0,0,3.9,9.94a5.56,5.56,0,0,0,0,.7,3.37,3.37,0,1,0,.55,6.5,3.45,3.45,0,0,0,5.73,2A5.86,5.86,0,0,0,20,21.45a3.45,3.45,0,0,0,5.59.57A5.85,5.85,0,0,0,35.65,18.3a1.71,1.71,0,1,0,2.17-2.5Z"/></g></g></svg>